# xmcd
# 
# Track frame offsets:
#     150
#     13481
#     37251
#     50979
#     68773
#     86658
#     104090
#     115993
#     129732
#     141701
# 
# Disc length: 2086
# 
# Revision: 4
# Processed by: cddbd v1.5.2PL0 Copyright (c) Steve Scherf et al.
# Submitted via: fre:ac v1.0.17
# 
DISCID=a808240a
DTITLE=Various Artist - Love Soul Ballads [disc1]
DYEAR=1998
DGENRE=R&B - Soul
TTITLE0=Percy Sledge - When a Man Loves a Woman
TTITLE1=Billy Paul,, Harold Melvin- and the Bluenotes - Me and Mrs Jones
TTITLE2=Chi-Lites - Oh Girl
TTITLE3=Brook Benton - Rainy Night in Georgia
TTITLE4=Dobie Gray - Drift Away
TTITLE5=Percy Sledge - If Loving You is Wrong
TTITLE6=Drifters - Under the Boardwalk
TTITLE7=Aaron Neville - Tell it Like it is
TTITLE8=Platters - Only You
TTITLE9=Sam and Dave - When Something is Wrong With My Baby
EXTD=Love Soul Ballads vol.1
EXTT0=
EXTT1=
EXTT2=
EXTT3=
EXTT4=
EXTT5=
EXTT6=
EXTT7=
EXTT8=
EXTT9=
PLAYORDER=
